<?xml version="1.0" encoding="utf-8"?>
<!-- Generator: Adobe Illustrator 25.4.1, SVG Export Plug-In . SVG Version: 6.00 Build 0)  -->
<svg version="1.1" id="Layer_1" xmlns:sketch="http://www.bohemiancoding.com/sketch/ns"
	 xmlns="http://www.w3.org/2000/svg" xmlns:xlink="http://www.w3.org/1999/xlink" x="0px" y="0px" viewBox="0 0 376 148"
	 style="enable-background:new 0 0 376 148;" xml:space="preserve">
<style type="text/css">
	.st0{fill-rule:evenodd;clip-rule:evenodd;fill:#788BA7;}
	.st1{fill-rule:evenodd;clip-rule:evenodd;fill:#3A4A5E;}
	.st2{fill-rule:evenodd;clip-rule:evenodd;fill:#486587;stroke:#456184;stroke-width:0.8479;}
	.st3{fill-rule:evenodd;clip-rule:evenodd;fill:#51729B;fill-opacity:0.507;}
</style>
<desc>Created with Sketch.</desc>
<path id="Shape" sketch:type="MSShapeGroup" class="st0" d="M273.2,0.3c-4,0-7.7,1.3-10.6,3.4c-2.3-1.1-5-1.8-7.8-1.8
	c-9.2,0-16.6,6.6-16.6,14.7c0,1.6,0.3,3.1,0.8,4.6c-2.6,2.6-4.2,6-4.2,9.7c0,1.3,0.2,2.5,0.5,3.7c-1.5,0.4-2.9,1-4.1,1.8
	c-2.5,1.1-4.6,2.8-6.2,4.8c0,0,0,0,0,0c-1.5,0.6-3,1.2-4.4,1.9c-2.6-6.1-7.6-10.5-13.6-11.5c-3.1-2.8-6.9-4.4-11.1-4.4
	c-4,0-7.6,1.5-10.6,4c-2.8-2-6-3.2-9.5-3.2c-9.5,0-17.3,8.5-18.2,19.4c-1.7-0.6-3.5-0.9-5.3-0.9c-5.6,0-10.6,3-14,7.6
	c-0.9,0-1.9-0.1-2.8-0.1c-2.9,0-5.8,0.2-8.5,0.7c-3.2-6.4-9.1-10.7-15.8-10.7c-7.7,0-14.2,5.5-16.9,13.4
	c-2.9-7.4-9.2-12.6-16.6-12.6c-5.6,0-10.6,2.9-13.9,7.6c-2.2-1.1-4.6-1.7-7.1-1.7c-7.5,0-14,5.4-16.8,13c-2.7-1.9-5.8-2.9-9.2-2.9
	c-6.8,0-12.7,4.3-15.8,10.7c-1.3-0.7-2.8-1.1-4.3-1.1C4.8,70.4,0,76,0,82.9s4.8,12.5,10.7,12.5c1.8,0,3.5-0.5,5-1.4
	c0.1,0.1,0.2,0.2,0.2,0.3c1.4,4,4.5,7,8.3,7.7c2.1,0.9,4.3,1.5,6.6,1.5c3.3,0,6.3-1,9-2.8c1.3,5.2,5.4,9.1,10.3,9.1
	c0.8,0,1.5-0.1,2.3-0.3c2.3,1.1,4.9,1.8,7.6,1.8c2.3,0,4.5-0.5,6.5-1.3c1.9,2,4.4,3.2,7.1,3.2c3.4,0,6.4-1.9,8.4-4.8
	c4.4,7.9,16.1,13.7,30.2,14.4c1.8,3.8,5.3,6.3,9.3,6.3c3.6,0,6.7-2,8.7-5.2c1,1.1,2.1,2.1,3.4,3.1c0.8,6,5.2,10.5,10.6,10.5
	c2.9,0,5.5-1.3,7.4-3.5l0.3,0c1.6,4.5,5.4,7.7,9.9,7.7c1.3,0,2.5-0.3,3.7-0.8c6.3,4.3,15.5,7.1,25.7,7.1c13.5,0,25.2-4.8,30.9-11.8
	c0.8,0,1.6-0.1,2.3-0.2c2.1,0.9,4.5,1.5,7,1.5c6.9,0,12.8-3.9,15.3-9.3c0.4-0.3,0.8-0.6,1.2-1c0.9,0.1,1.8,0.2,2.8,0.2
	c1.4,0,2.8-0.2,4.2-0.5c1.8,3.8,5.3,6.3,9.3,6.3c4.3,0,8-3,9.7-7.3c0.9,0.1,1.9,0.2,2.8,0.2c3.2,0,6.1-0.8,8.6-2.2
	c1.9,2.1,4.5,3.4,7.3,3.4c4.5,0,8.4-3.3,10-8c0.4,0,0.9,0.1,1.3,0.1c1.1,0,2.2-0.2,3.3-0.4c1.8,1.6,4,2.5,6.4,2.5
	c4.4,0,8.2-3.1,9.8-7.6c2.5,1.4,5.5,2.2,8.6,2.2c6.4,0,12-3.3,14.8-8.2c1.9,0.7,4,1.1,6.2,1.1c9.2,0,16.6-6.8,16.6-15.1
	c0-1-0.1-1.9-0.3-2.9c1.3-2.1,2-4.6,2-7.2c0-4.9-2.5-9.2-6.5-11.9c0.4-1.3,0.6-2.6,0.6-4c0-8.3-7.4-15.1-16.6-15.1
	c-0.8,0-1.6,0.1-2.4,0.2c0.3-1.1,0.5-2.3,0.5-3.5c0-8.1-7.4-14.7-16.6-14.7c-0.3,0-0.5,0-0.8,0c-1.8-3.8-5.3-6.3-9.3-6.3
	c-1.5,0-3,0.4-4.3,1.1c-4.1-7-14-12.3-26.1-13.8c0-0.3,0.1-0.5,0.1-0.8C289.8,6.8,282.4,0.3,273.2,0.3L273.2,0.3z M314.9,55
	c0.6,1.3,1.5,2.5,2.5,3.6c-0.9-0.1-1.9-0.2-2.8-0.3c0.2-1,0.3-2,0.3-3.1C314.9,55.1,314.9,55.1,314.9,55L314.9,55z M278.4,57.9
	c1.2,0.1,2.5,0.2,3.8,0.2c0.2,0.7,0.4,1.4,0.7,2c-1.4-0.7-3-1.3-4.6-1.8C278.3,58.2,278.3,58.1,278.4,57.9L278.4,57.9z"/>
<path id="Shape_00000173881196147716726230000008937165092700271285_" sketch:type="MSShapeGroup" class="st1" d="M273.6,0.4
	c-4,0-7.7,1.3-10.6,3.4c-2.3-1.1-5-1.8-7.8-1.8c-1.4,0-2.7,0.2-4,0.5c2.9,2.2,5.7,4.6,8.2,6.9c11.3,1.2,20.1,10.3,20.1,21.2
	c0,2.4-0.4,4.7-1.2,6.8c1.6,5,2.5,10.2,2.5,15.4c0,0,0,0,0,0.1c4.5,3.9,7.2,9.5,7.2,15.6c0,11.7-10,21.2-22.4,21.4
	c-0.4,0.4-0.8,0.9-1.2,1.3c1,2.1,1.5,4.5,1.5,6.8c0,11.8-12.8,21.4-28.7,21.4c-1.4,0-2.8-0.1-4.2-0.2c-2.4,10.3-16.8,18.3-34.2,18.3
	c-6.1,0-11.8-1-16.8-2.7c-3.3,3.8-8,6.6-13.5,7.7c6.1,3.3,14.1,5.3,22.8,5.3c13.5,0,25.2-4.8,30.9-11.8c0.8,0,1.6-0.1,2.3-0.2
	c2.1,0.9,4.5,1.5,7,1.5c6.9,0,12.8-3.9,15.3-9.3c0.4-0.3,0.8-0.6,1.2-1c0.9,0.1,1.8,0.2,2.8,0.2c1.4,0,2.8-0.2,4.2-0.5
	c1.8,3.8,5.3,6.3,9.3,6.3c4.3,0,8-3,9.7-7.3c0.9,0.1,1.9,0.2,2.8,0.2c3.2,0,6.1-0.8,8.6-2.2c1.9,2.1,4.5,3.4,7.3,3.4
	c4.5,0,8.4-3.3,10-8c0.4,0,0.9,0.1,1.3,0.1c1.1,0,2.2-0.2,3.3-0.4c1.8,1.6,4,2.5,6.4,2.5c4.4,0,8.2-3.1,9.8-7.6
	c2.5,1.4,5.5,2.2,8.6,2.2c6.4,0,12-3.3,14.8-8.2c1.9,0.7,4,1.1,6.2,1.1c9.2,0,16.6-6.8,16.6-15.1c0-1-0.1-1.9-0.3-2.9
	c1.3-2.1,2-4.6,2-7.2c0-4.9-2.5-9.2-6.5-11.9c0.4-1.3,0.6-2.6,0.6-4c0-8.3-7.4-15.1-16.6-15.1c-0.8,0-1.6,0.1-2.4,0.2
	c0.3-1.1,0.5-2.3,0.5-3.5c0-8.1-7.4-14.7-16.6-14.7c-0.3,0-0.5,0-0.8,0c-1.8-3.8-5.3-6.3-9.3-6.3c-1.5,0-3,0.4-4.3,1.1
	c-4.1-7-14-12.3-26.1-13.8c0-0.3,0.1-0.5,0.1-0.8C290.2,6.9,282.8,0.4,273.6,0.4L273.6,0.4z M315.4,55.1c0.6,1.3,1.5,2.5,2.5,3.6
	c-0.9-0.1-1.9-0.2-2.8-0.3c0.2-1,0.3-2,0.3-3.1C315.4,55.2,315.4,55.2,315.4,55.1L315.4,55.1z"/>
<path id="Shape_00000107549821028614645060000006842329107552555659_" sketch:type="MSShapeGroup" class="st2" d="M161.4,114.7
	c1.5,0,2.8,0.4,4,1.1h0.1c4,0,7.3,3.2,7.5,7.1c0,0.1,0,0.3,0,0.4c0,1.1-0.2,2.1-0.7,3.1c0.8,1.2,1.3,2.6,1.3,4.2c0,0.1,0,0.3,0,0.4
	c-0.2,4-3.5,7.1-7.5,7.1c-0.4,0-0.8,0-1.2-0.1c-1.2,0.8-2.6,1.2-4.1,1.2c-1.5,0-2.8-0.4-4-1.1c-0.1,0-0.3,0-0.4,0
	c-4.2,0-7.5-3.4-7.5-7.5c0-1.1,0.2-2.1,0.7-3.1c-0.8-1.2-1.3-2.6-1.3-4.2c0-4.2,3.4-7.5,7.5-7.5c0.5,0,1,0,1.5,0.1
	C158.4,115.2,159.9,114.7,161.4,114.7L161.4,114.7z"/>
<path id="Shape_00000109008028958964749740000011680730656404985744_" sketch:type="MSShapeGroup" class="st1" d="M163.3,117.1
	c1.5,0,2.8,0.4,4,1.1h0.1c4,0,7.3,3.2,7.5,7.1c0,0.1,0,0.3,0,0.4c0,1.1-0.2,2.1-0.7,3.1c0.8,1.2,1.3,2.6,1.3,4.2c0,0.1,0,0.3,0,0.4
	c-0.2,4-3.5,7.1-7.5,7.1c-0.4,0-0.8,0-1.2-0.1c-1.2,0.8-2.6,1.2-4.1,1.2c-1.5,0-2.8-0.4-4-1.1c-0.1,0-0.3,0-0.4,0
	c-4.2,0-7.5-3.4-7.5-7.5c0-1.1,0.2-2.1,0.7-3.1c-0.8-1.2-1.3-2.6-1.3-4.2c0-4.2,3.4-7.5,7.5-7.5c0.5,0,1,0,1.5,0.1
	C160.3,117.6,161.8,117.1,163.3,117.1L163.3,117.1z"/>
<path id="Shape_00000135690637609435103120000007737315583786610876_" sketch:type="MSShapeGroup" class="st1" d="M244.5,114.2
	c1.5,0,2.8,0.4,4,1.1h0.1c4,0,7.3,3.2,7.5,7.1c0,0.1,0,0.3,0,0.4c0,1.1-0.2,2.1-0.7,3.1c0.8,1.2,1.3,2.6,1.3,4.2c0,0.1,0,0.3,0,0.4
	c-0.2,4-3.5,7.1-7.5,7.1c-0.4,0-0.8,0-1.2-0.1c-1.2,0.8-2.6,1.2-4.1,1.2c-1.5,0-2.8-0.4-4-1.1c-0.1,0-0.3,0-0.4,0
	c-4.2,0-7.5-3.4-7.5-7.5c0-1.1,0.2-2.1,0.7-3.1c-0.8-1.2-1.3-2.6-1.3-4.2c0-4.2,3.4-7.5,7.5-7.5c0.5,0,1,0,1.5,0.1
	C241.5,114.6,243,114.2,244.5,114.2L244.5,114.2z"/>
<path id="Shape_00000060733606312740029430000017668972405749246871_" sketch:type="MSShapeGroup" class="st2" d="M246.4,116.6
	c1.5,0,2.8,0.4,4,1.1h0.1c4,0,7.3,3.2,7.5,7.1c0,0.1,0,0.3,0,0.4c0,1.1-0.2,2.1-0.7,3.1c0.8,1.2,1.3,2.6,1.3,4.2c0,0.1,0,0.3,0,0.4
	c-0.2,4-3.5,7.1-7.5,7.1c-0.4,0-0.8,0-1.2-0.1c-1.2,0.8-2.6,1.2-4.1,1.2c-1.5,0-2.8-0.4-4-1.1c-0.1,0-0.3,0-0.4,0
	c-4.2,0-7.5-3.4-7.5-7.5c0-1.1,0.2-2.1,0.7-3.1c-0.8-1.2-1.3-2.6-1.3-4.2c0-4.2,3.4-7.5,7.5-7.5c0.5,0,1,0,1.5,0.1
	C243.4,117,244.9,116.6,246.4,116.6L246.4,116.6z"/>
<path id="Shape_00000054249360163087527100000007724523526785711748_" sketch:type="MSShapeGroup" class="st0" d="M353.5,67.6
	c2.2,0,4.3,0.7,6.1,1.7h0.2c6.2,0,11.3,4.9,11.6,11c0,0.2,0,0.4,0,0.6c0,1.7-0.4,3.3-1,4.7c1.2,1.8,2,4.1,2,6.4c0,0.2,0,0.4,0,0.6
	c-0.3,6.1-5.4,11-11.6,11c-0.6,0-1.2,0-1.8-0.1c-1.8,1.2-4,1.9-6.3,1.9c-2.3,0-4.4-0.6-6.2-1.8c-0.2,0-0.5,0-0.7,0
	c-6.4,0-11.6-5.2-11.6-11.6c0-1.7,0.4-3.3,1-4.7c-1.2-1.8-2-4-2-6.4c0-6.4,5.2-11.6,11.6-11.6c0.8,0,1.5,0.1,2.3,0.2
	C348.8,68.3,351.1,67.6,353.5,67.6L353.5,67.6z"/>
<path id="Shape_00000127041338021339270210000013958749568010664352_" sketch:type="MSShapeGroup" class="st2" d="M356.4,71.3
	c2.2,0,4.3,0.7,6.1,1.7h0.2c6.2,0,11.3,4.9,11.6,11c0,0.2,0,0.4,0,0.6c0,1.7-0.4,3.3-1,4.7c1.2,1.8,2,4.1,2,6.4c0,0.2,0,0.4,0,0.6
	c-0.3,6.1-5.4,11-11.6,11c-0.6,0-1.2,0-1.8-0.1c-1.8,1.2-4,1.9-6.3,1.9c-2.3,0-4.4-0.6-6.2-1.8c-0.2,0-0.5,0-0.7,0
	c-6.4,0-11.6-5.2-11.6-11.6c0-1.7,0.4-3.3,1-4.7c-1.2-1.8-2-4-2-6.4c0-6.4,5.2-11.6,11.6-11.6c0.8,0,1.5,0.1,2.3,0.2
	C351.8,72,354,71.3,356.4,71.3L356.4,71.3z"/>
<path id="Shape_00000018211370396085081360000005455601354250747289_" sketch:type="MSShapeGroup" class="st0" d="M303.2,47.1
	c1.5,0,3,0.4,4.2,1.2h0.1c4.3,0,7.8,3.3,8,7.6c0,0.1,0,0.3,0,0.4c0,1.2-0.3,2.2-0.7,3.2c0.9,1.3,1.3,2.8,1.3,4.4c0,0.1,0,0.3,0,0.4
	c-0.2,4.2-3.7,7.6-8,7.6c-0.4,0-0.8,0-1.2-0.1c-1.3,0.8-2.8,1.3-4.4,1.3c-1.6,0-3-0.4-4.2-1.2c-0.2,0-0.3,0-0.5,0c-4.4,0-8-3.6-8-8
	c0-1.2,0.3-2.3,0.7-3.3c-0.9-1.3-1.4-2.8-1.4-4.4c0-4.4,3.6-8,8-8c0.5,0,1.1,0.1,1.6,0.2C300,47.6,301.6,47.1,303.2,47.1L303.2,47.1
	z"/>
<path id="Shape_00000161621544846524957880000000171971597049661856_" sketch:type="MSShapeGroup" class="st2" d="M306.9,51.3
	c1.5,0,3,0.4,4.2,1.2h0.1c4.3,0,7.8,3.3,8,7.6c0,0.1,0,0.3,0,0.4c0,1.2-0.3,2.2-0.7,3.2c0.9,1.3,1.3,2.8,1.3,4.4c0,0.1,0,0.3,0,0.4
	c-0.2,4.2-3.7,7.6-8,7.6c-0.4,0-0.8,0-1.2-0.1c-1.3,0.8-2.8,1.3-4.4,1.3c-1.6,0-3-0.4-4.2-1.2c-0.2,0-0.3,0-0.5,0c-4.4,0-8-3.6-8-8
	c0-1.2,0.3-2.3,0.7-3.3c-0.9-1.3-1.4-2.8-1.4-4.4c0-4.4,3.6-8,8-8c0.5,0,1.1,0.1,1.6,0.2C303.7,51.8,305.3,51.3,306.9,51.3
	L306.9,51.3z"/>
<path id="Shape_00000110446367054278109510000003213927441025760677_" sketch:type="MSShapeGroup" class="st2" d="M31.5,80.6
	c1.5,0,2.8,0.4,4,1.1h0.1c4,0,7.3,3.2,7.5,7.1c0,0.1,0,0.3,0,0.4c0,1.1-0.2,2.1-0.7,3.1c0.8,1.2,1.3,2.6,1.3,4.2c0,0.1,0,0.3,0,0.4
	c-0.2,4-3.5,7.1-7.5,7.1c-0.4,0-0.8,0-1.2-0.1c-1.2,0.8-2.6,1.2-4.1,1.2c-1.5,0-2.8-0.4-4-1.1c-0.1,0-0.3,0-0.4,0
	c-4.2,0-7.5-3.4-7.5-7.5c0-1.1,0.2-2.1,0.7-3.1c-0.8-1.2-1.3-2.6-1.3-4.2c0-4.2,3.4-7.5,7.5-7.5c0.5,0,1,0,1.5,0.1
	C28.5,81.1,29.9,80.6,31.5,80.6L31.5,80.6z"/>
<path id="Shape_00000153706272013117879070000018042249695474191255_" sketch:type="MSShapeGroup" class="st1" d="M33.4,83
	c1.5,0,2.8,0.4,4,1.1h0.1c4,0,7.3,3.2,7.5,7.1c0,0.1,0,0.3,0,0.4c0,1.1-0.2,2.1-0.7,3.1c0.8,1.2,1.3,2.6,1.3,4.2c0,0.1,0,0.3,0,0.4
	c-0.2,4-3.5,7.1-7.5,7.1c-0.4,0-0.8,0-1.2-0.1c-1.2,0.8-2.6,1.2-4.1,1.2c-1.5,0-2.8-0.4-4-1.1c-0.1,0-0.3,0-0.4,0
	c-4.2,0-7.5-3.4-7.5-7.5c0-1.1,0.2-2.1,0.7-3.1c-0.8-1.2-1.3-2.6-1.3-4.2c0-4.2,3.4-7.5,7.5-7.5c0.5,0,1,0,1.5,0.1
	C30.4,83.5,31.8,83,33.4,83L33.4,83z"/>
<path id="Shape_00000129186771193537162820000003755071057722500226_" sketch:type="MSShapeGroup" class="st2" d="M108.6,85.6
	c1.5,0,2.8,0.4,4,1.1h0.1c4,0,7.3,3.2,7.5,7.1c0,0.1,0,0.3,0,0.4c0,1.1-0.2,2.1-0.7,3.1c0.8,1.2,1.3,2.6,1.3,4.2c0,0.1,0,0.3,0,0.4
	c-0.2,4-3.5,7.1-7.5,7.1c-0.4,0-0.8,0-1.2-0.1c-1.2,0.8-2.6,1.2-4.1,1.2c-1.5,0-2.8-0.4-4-1.1c-0.1,0-0.3,0-0.4,0
	c-4.2,0-7.5-3.4-7.5-7.5c0-1.1,0.2-2.1,0.7-3.1c-0.8-1.2-1.3-2.6-1.3-4.2c0-4.2,3.4-7.5,7.5-7.5c0.5,0,1,0,1.5,0.1
	C105.7,86.1,107.1,85.6,108.6,85.6L108.6,85.6z"/>
<path id="Shape_00000098915575689678801210000001230397911451153564_" sketch:type="MSShapeGroup" class="st1" d="M110.5,88
	c1.5,0,2.8,0.4,4,1.1h0.1c4,0,7.3,3.2,7.5,7.1c0,0.1,0,0.3,0,0.4c0,1.1-0.2,2.1-0.7,3.1c0.8,1.2,1.3,2.6,1.3,4.2c0,0.1,0,0.3,0,0.4
	c-0.2,4-3.5,7.1-7.5,7.1c-0.4,0-0.8,0-1.2-0.1c-1.2,0.8-2.6,1.2-4.1,1.2c-1.5,0-2.8-0.4-4-1.1c-0.1,0-0.3,0-0.4,0
	c-4.2,0-7.5-3.4-7.5-7.5c0-1.1,0.2-2.1,0.7-3.1c-0.8-1.2-1.3-2.6-1.3-4.2c0-4.2,3.4-7.5,7.5-7.5c0.5,0,1,0,1.5,0.1
	C107.6,88.5,109,88,110.5,88L110.5,88z"/>
<path id="Shape_00000030462818419909443530000002027631752655799977_" sketch:type="MSShapeGroup" class="st1" d="M273,76.3
	c1.5,0,2.8,0.3,4,0.7h0.1c4.1,0,7.4,2,7.6,4.5c0,0.1,0,0.2,0,0.2c0,0.7-0.2,1.3-0.7,1.9c0.8,0.8,1.3,1.6,1.3,2.6c0,0.1,0,0.2,0,0.2
	c-0.2,2.5-3.5,4.5-7.6,4.5c-0.4,0-0.8,0-1.2-0.1c-1.2,0.5-2.6,0.8-4.1,0.8c-1.5,0-2.9-0.3-4-0.7c-0.1,0-0.3,0-0.4,0
	c-4.2,0-7.6-2.1-7.6-4.7c0-0.7,0.2-1.3,0.7-1.9c-0.8-0.7-1.3-1.6-1.3-2.6c0-2.6,3.4-4.7,7.6-4.7c0.5,0,1,0,1.5,0.1
	C270,76.6,271.5,76.3,273,76.3L273,76.3z"/>
<path id="Shape_00000156565919396833267470000007906529043237377203_" sketch:type="MSShapeGroup" class="st3" d="M275,77.8
	c1.5,0,2.8,0.3,4,0.7h0.1c4.1,0,7.4,2,7.6,4.5c0,0.1,0,0.2,0,0.2c0,0.7-0.2,1.3-0.7,1.9c0.8,0.8,1.3,1.6,1.3,2.6c0,0.1,0,0.2,0,0.2
	c-0.2,2.5-3.5,4.5-7.6,4.5c-0.4,0-0.8,0-1.2-0.1c-1.2,0.5-2.6,0.8-4.1,0.8c-1.5,0-2.9-0.3-4-0.7c-0.1,0-0.3,0-0.4,0
	c-4.2,0-7.6-2.1-7.6-4.7c0-0.7,0.2-1.3,0.7-1.9c-0.8-0.7-1.3-1.6-1.3-2.6c0-2.6,3.4-4.7,7.6-4.7c0.5,0,1,0,1.5,0.1
	C271.9,78.1,273.4,77.8,275,77.8L275,77.8z"/>
<path id="Shape_00000094597695744344305250000016930114833288163004_" sketch:type="MSShapeGroup" class="st2" d="M81.7,46.2
	c1.5,0,2.8,0.3,4,0.7h0.1c4.1,0,7.4,2,7.6,4.5c0,0.1,0,0.2,0,0.2c0,0.7-0.2,1.3-0.7,1.9c0.8,0.8,1.3,1.6,1.3,2.6c0,0.1,0,0.2,0,0.2
	c-0.2,2.5-3.5,4.5-7.6,4.5c-0.4,0-0.8,0-1.2-0.1c-1.2,0.5-2.6,0.8-4.1,0.8c-1.5,0-2.9-0.3-4-0.7c-0.1,0-0.3,0-0.4,0
	c-4.2,0-7.6-2.1-7.6-4.7c0-0.7,0.2-1.3,0.7-1.9c-0.8-0.7-1.3-1.6-1.3-2.6c0-2.6,3.4-4.7,7.6-4.7c0.5,0,1,0,1.5,0.1
	C78.7,46.4,80.2,46.2,81.7,46.2L81.7,46.2z"/>
<path id="Shape_00000004534446296258800770000004715286362913441214_" sketch:type="MSShapeGroup" class="st1" d="M83.7,47.7
	c1.5,0,2.8,0.3,4,0.7h0.1c4.1,0,7.4,2,7.6,4.5c0,0.1,0,0.2,0,0.2c0,0.7-0.2,1.3-0.7,1.9c0.8,0.8,1.3,1.6,1.3,2.6c0,0.1,0,0.2,0,0.2
	c-0.2,2.5-3.5,4.5-7.6,4.5c-0.4,0-0.8,0-1.2-0.1C86,62.8,84.6,63,83,63c-1.5,0-2.9-0.3-4-0.7c-0.1,0-0.3,0-0.4,0
	c-4.2,0-7.6-2.1-7.6-4.7c0-0.7,0.2-1.3,0.7-1.9c-0.8-0.7-1.3-1.6-1.3-2.6c0-2.6,3.4-4.7,7.6-4.7c0.5,0,1,0,1.5,0.1
	C80.7,48,82.1,47.7,83.7,47.7L83.7,47.7z"/>
<path id="Shape_00000083047257973432784490000001982844110605778818_" sketch:type="MSShapeGroup" class="st2" d="M206.6,62.7
	c2.3,0,4.4,0.4,6.1,1.1h0.2c6.3,0,11.4,3.1,11.7,6.9c0,0.1,0,0.3,0,0.4c0,1.1-0.4,2-1,3c1.2,1.2,2,2.5,2,4c0,0.1,0,0.3,0,0.4
	c-0.3,3.8-5.4,6.9-11.7,6.9c-0.6,0-1.2,0-1.8-0.1c-1.8,0.7-4,1.2-6.4,1.2c-2.3,0-4.4-0.4-6.2-1.1c-0.2,0-0.5,0-0.7,0
	c-6.5,0-11.7-3.3-11.7-7.3c0-1.1,0.4-2.1,1-3c-1.2-1.2-2-2.5-2-4c0-4,5.2-7.3,11.7-7.3c0.8,0,1.6,0,2.3,0.1
	C201.9,63.1,204.2,62.7,206.6,62.7L206.6,62.7z"/>
<path id="Shape_00000127748258303609266240000011848898480963597204_" sketch:type="MSShapeGroup" class="st1" d="M209.5,65
	c2.3,0,4.4,0.4,6.1,1.1h0.2c6.3,0,11.4,3.1,11.7,6.9c0,0.1,0,0.3,0,0.4c0,1.1-0.4,2-1,3c1.2,1.2,2,2.5,2,4c0,0.1,0,0.3,0,0.4
	c-0.3,3.8-5.4,6.9-11.7,6.9c-0.6,0-1.2,0-1.8-0.1c-1.8,0.7-4,1.2-6.4,1.2c-2.3,0-4.4-0.4-6.2-1.1c-0.2,0-0.5,0-0.7,0
	c-6.5,0-11.7-3.3-11.7-7.3c0-1.1,0.4-2.1,1-3c-1.2-1.2-2-2.5-2-4c0-4,5.2-7.3,11.7-7.3c0.8,0,1.6,0,2.3,0.1
	C204.9,65.4,207.1,65,209.5,65L209.5,65z"/>
</svg>
