<?xml version="1.0" encoding="utf-8"?>
<!-- Generator: Adobe Illustrator 25.4.1, SVG Export Plug-In . SVG Version: 6.00 Build 0)  -->
<svg version="1.1" id="Layer_1" xmlns:sketch="http://www.bohemiancoding.com/sketch/ns"
	 xmlns="http://www.w3.org/2000/svg" xmlns:xlink="http://www.w3.org/1999/xlink" x="0px" y="0px" viewBox="0 0 197 276"
	 style="enable-background:new 0 0 197 276;" xml:space="preserve">
<style type="text/css">
	.st0{fill-rule:evenodd;clip-rule:evenodd;fill:#E6E0D8;stroke:#000000;stroke-width:5.81;}
	.st1{fill-rule:evenodd;clip-rule:evenodd;fill:#93939F;stroke:#000000;stroke-width:2.7051;}
	.st2{fill-rule:evenodd;clip-rule:evenodd;fill:#7F7F8D;}
	.st3{fill-rule:evenodd;clip-rule:evenodd;fill:#C1C1C8;}
	.st4{fill-rule:evenodd;clip-rule:evenodd;fill:#FFFFFF;stroke:#000000;stroke-width:5.4845;}
	.st5{opacity:0.3374;fill-rule:evenodd;clip-rule:evenodd;fill:#A5A5A5;enable-background:new    ;}
	.st6{fill-rule:evenodd;clip-rule:evenodd;fill:#D0B3DD;stroke:#000000;stroke-width:1.3433;}
	.st7{fill-rule:evenodd;clip-rule:evenodd;fill:#E0C692;stroke:#000000;stroke-width:2.6866;}
	.st8{fill-rule:evenodd;clip-rule:evenodd;}
	
		.st9{fill-rule:evenodd;clip-rule:evenodd;fill:url(#Shape_00000173872605852588804630000015291464550237773963_);stroke:#000000;stroke-width:3.0452;}
	
		.st10{fill-rule:evenodd;clip-rule:evenodd;fill:url(#Shape_00000093866773577046117340000016610951025406046851_);stroke:#000000;stroke-width:3.0452;}
	.st11{fill:none;stroke:#000000;stroke-width:5.3732;}
</style>
<desc>Created with Sketch.</desc>
<path id="Shape" sketch:type="MSShapeGroup" class="st0" d="M98.1,2.9c-0.2,0-0.6,0-0.8,0l0,0C82.6,3.2,47.1,6.3,34,38.1
	c-6.5-8.7,0,0-21-19.9c0,0-26.4,25.8,9.6,44.2c12.5,116-13,160.6,61,159c4.2-0.1,8.8,0,13.6,0.1h0.1h2.2v-0.1
	c4.8-0.1,9.4-0.2,13.6-0.1c74,1.6,48.5-43,61-159c36-18.4,9.6-44.2,9.6-44.2c-21,19.9-14.5,11.3-21,19.9
	C149.3,5.2,111.7,2.9,98.1,2.9L98.1,2.9z"/>
<path id="Shape_00000083790134089450633550000012822400235193773714_" sketch:type="MSShapeGroup" class="st1" d="M169.8,196.2
	c0,42.5-31.2,77-69.7,77s-69.7-34.5-69.7-77s31.2-77,69.7-77S169.8,153.6,169.8,196.2L169.8,196.2z"/>
<path id="Shape_00000093868495934033350280000010187512820804486075_" sketch:type="MSShapeGroup" class="st2" d="M99,120.1
	c37.4,1.3,67.4,34.9,67.4,76.2c0,39-26.7,71.1-61.2,75.7c24-6.6,42.2-37.7,42.2-75.1c0-40.6-21.4-73.7-48.5-76.3v-0.5H99z"/>
<path id="Shape_00000102522829697463941190000011467488212862465429_" sketch:type="MSShapeGroup" class="st3" d="M98.5,118.9
	c-37.2,1.3-67.1,35-67.1,76.3c0,39,26.6,71.1,60.8,75.7c-23.9-6.7-42-37.8-42-75.2c0-40.6,21.3-73.8,48.2-76.4v-0.4H98.5z"/>
<path id="Shape_00000129887996025875338330000001189777730180034233_" sketch:type="MSShapeGroup" class="st4" d="M72.8,31.5
	c-17.3,0-31.3,16.2-31.3,36.2s14,36.2,31.3,36.2c10.2,0,19.2-5.6,24.9-14.3c5.7,8.7,14.7,14.3,24.9,14.3c17.3,0,31.3-16.2,31.3-36.2
	s-14-36.2-31.3-36.2c-10.2,0-19.2,5.6-24.9,14.3C92,37.1,83,31.5,72.8,31.5L72.8,31.5z"/>
<path id="Shape_00000053539239593906507670000012710210492414824079_" sketch:type="MSShapeGroup" class="st5" d="M138.2,35
	c0.4,2.3,0.6,4.7,0.6,7.1c0,20.6-14.5,37.4-32.3,37.4c-10.5,0-19.8-5.8-25.8-14.7c-5.9,9-15.2,14.7-25.7,14.7
	c-5.2,0-10.1-1.4-14.5-3.9c2.9,17.2,16,30.3,31.7,30.3c10.5,0,19.8-5.8,25.7-14.8c5.9,9,15.2,14.8,25.7,14.8
	c17.8,0,32.3-16.8,32.3-37.4C156.1,53.8,148.8,41.1,138.2,35L138.2,35z"/>
<path id="Shape_00000157287931011972217390000017174888697136066491_" sketch:type="MSShapeGroup" class="st6" d="M10.6,27.6
	c0,0-13.6,15.8,10.1,30.8c3.8-3.7,4.4-4.3,8.8-7.9v-2.9c-5.4-3-2.9-6.8-11.8-17.8L10.6,27.6L10.6,27.6z"/>
<path id="Shape_00000023280385009688391170000008496200613163675816_" sketch:type="MSShapeGroup" class="st6" d="M187.6,28.3
	c0,0,13.6,15.8-10.1,30.8c-3.8-3.7-4.4-4.3-8.8-7.9v-2.9c5.4-3,2.9-6.8,11.8-17.8L187.6,28.3L187.6,28.3z"/>
<path id="Shape_00000078752377399010315280000015135349628440227487_" sketch:type="MSShapeGroup" class="st2" d="M100.6,124.3
	c32.7,1.3,58.9,33.9,58.9,74.1c0,37.9-23.3,69.1-53.4,73.5c21-6.5,36.9-36.7,36.9-73c0-39.4-18.7-71.7-42.3-74.1L100.6,124.3
	L100.6,124.3z"/>
<path id="Shape_00000106845807093189307290000003496375585639183252_" sketch:type="MSShapeGroup" class="st7" d="M98.4,93.1
	c-11.5,0-21.5,5.7-26.1,13.9c-10.5,3.3-17.3,8.4-17.3,14.1c0,1.6,0.5,3.1,1.5,4.6c-0.7,1.7-1.1,3.4-1.1,5.3c0,13,20,23.6,44.7,23.6
	s44.7-10.6,44.7-23.6c0-2.1-0.5-4.1-1.5-6c0.7-1.2,1-2.5,1-3.8c0-6.3-8.1-11.8-20.4-14.9C119.2,98.4,109.5,93.1,98.4,93.1L98.4,93.1
	z"/>
<path id="Shape_00000148663471145718307630000003768410148447212936_" sketch:type="MSShapeGroup" class="st8" d="M114.7,101
	c0,8.7-7.1,15.8-15.8,15.8s-15.8-7.1-15.8-15.8S90.2,85.2,99,85.2S114.7,92.3,114.7,101L114.7,101z"/>
<linearGradient id="Shape_00000141416433084107951830000007995041840191538050_" gradientUnits="userSpaceOnUse" x1="-285.1939" y1="8.6496" x2="-284.0222" y2="8.6496" gradientTransform="matrix(17.8781 0 0 27.2428 5176.9902 -87.0399)">
	<stop  offset="0" style="stop-color:#8A8A8A"/>
	<stop  offset="0.2857" style="stop-color:#F1F1F1"/>
	<stop  offset="1" style="stop-color:#FFFFFF"/>
</linearGradient>
<path id="Shape_00000039122941792873290290000018420275833602796943_" sketch:type="MSShapeGroup" style="fill-rule:evenodd;clip-rule:evenodd;fill:url(#Shape_00000141416433084107951830000007995041840191538050_);stroke:#000000;stroke-width:3.0452;" d="
	M79.8,135h17.9v27.2H79.8V135z"/>
<linearGradient id="Shape_00000150785240251024668450000007062575103115473543_" gradientUnits="userSpaceOnUse" x1="-285.1941" y1="8.6501" x2="-284.0225" y2="8.6501" gradientTransform="matrix(17.8781 0 0 27.2428 5195.0854 -87.5516)">
	<stop  offset="0" style="stop-color:#8A8A8A"/>
	<stop  offset="0.2857" style="stop-color:#F1F1F1"/>
	<stop  offset="1" style="stop-color:#FFFFFF"/>
</linearGradient>
<path id="Shape_00000167383780597557332790000015334081513801117828_" sketch:type="MSShapeGroup" style="fill-rule:evenodd;clip-rule:evenodd;fill:url(#Shape_00000150785240251024668450000007062575103115473543_);stroke:#000000;stroke-width:3.0452;" d="
	M97.9,134.5h17.9v27.2H97.9V134.5z"/>
<path id="Shape_00000061433133678252055790000006164875250777130656_" sketch:type="MSShapeGroup" class="st11" d="M62.9,125.8
	c26,14.5,50.3,12.2,73.2-3.4"/>
<rect x="76.2" y="55.6" transform="matrix(0.7071 -0.7071 0.7071 0.7071 -25.2396 75.5792)" class="st8" width="4.8" height="25.3"/>
<rect x="76.2" y="55.9" transform="matrix(-0.7071 -0.7071 0.7071 -0.7071 85.5047 173.1477)" class="st8" width="4.9" height="25.9"/>
<rect x="116.5" y="55.7" transform="matrix(0.7071 -0.7071 0.7071 0.7071 -13.424 104.0548)" class="st8" width="4.7" height="25"/>
<rect x="116" y="55.7" transform="matrix(-0.7071 -0.7071 0.7071 -0.7071 153.7413 200.1448)" class="st8" width="4.7" height="25"/>
</svg>
