<svg width="48" height="59" viewBox="0 0 48 59" fill="none" xmlns="http://www.w3.org/2000/svg">
<path d="M46.94 43.6H36.86V1.75H22.64L1.94 6.43V20.83L17.96 19.75V43.6H1.94V58H46.94V43.6Z" fill="white"/>
<path d="M46.94 43.6H47.94V42.6H46.94V43.6ZM36.86 43.6H35.86V44.6H36.86V43.6ZM36.86 1.75H37.86V0.75H36.86V1.75ZM22.64 1.75V0.75H22.5284L22.4195 0.774618L22.64 1.75ZM1.94 6.43L1.71948 5.45462L0.94 5.63085V6.43H1.94ZM1.94 20.83H0.94V21.8997L2.00726 21.8277L1.94 20.83ZM17.96 19.75H18.96V18.6803L17.8927 18.7523L17.96 19.75ZM17.96 43.6V44.6H18.96V43.6H17.96ZM1.94 43.6V42.6H0.94V43.6H1.94ZM1.94 58H0.94V59H1.94V58ZM46.94 58V59H47.94V58H46.94ZM46.94 42.6H36.86V44.6H46.94V42.6ZM37.86 43.6V1.75H35.86V43.6H37.86ZM36.86 0.75H22.64V2.75H36.86V0.75ZM22.4195 0.774618L1.71948 5.45462L2.16052 7.40538L22.8605 2.72538L22.4195 0.774618ZM0.94 6.43V20.83H2.94V6.43H0.94ZM2.00726 21.8277L18.0273 20.7477L17.8927 18.7523L1.87274 19.8323L2.00726 21.8277ZM16.96 19.75V43.6H18.96V19.75H16.96ZM17.96 42.6H1.94V44.6H17.96V42.6ZM0.94 43.6V58H2.94V43.6H0.94ZM1.94 59H46.94V57H1.94V59ZM47.94 58V43.6H45.94V58H47.94Z" fill="black"/>
</svg>
