<svg width="50" height="60" viewBox="0 0 50 60" fill="none" xmlns="http://www.w3.org/2000/svg">
<path d="M4.75 18.23L2.41 4.81999C10.09 2.54 17.62 1.4 25 1.4C28.48 1.4 31.63 1.61 34.45 2.03C37.33 2.39 39.79 3.2 41.83 4.46C43.87 5.66 45.43 7.43 46.51 9.77C47.65 12.11 48.22 15.26 48.22 19.22C48.22 22.16 47.86 24.68 47.14 26.78C46.42 28.82 45.1 30.68 43.18 32.36C41.26 34.04 38.59 35.63 35.17 37.13C31.75 38.63 27.34 40.28 21.94 42.08V44.6H47.32V59H1.15V47.75C1.15 46.07 1.24 44.54 1.42 43.16C1.66 41.72 2.05 40.37 2.59 39.11C3.19 37.85 3.97 36.65 4.93 35.51C5.95 34.31 7.21 33.08 8.71 31.82C9.55 31.1 10.51 30.41 11.59 29.75C12.73 29.09 13.93 28.46 15.19 27.86C16.51 27.2 17.83 26.57 19.15 25.97C20.53 25.37 21.82 24.8 23.02 24.26C24.22 23.72 25.3 23.24 26.26 22.82C27.22 22.34 28.09 21.92 28.87 21.56V16.7C27.49 16.58 26.17 16.49 24.91 16.43C23.71 16.31 22.54 16.25 21.4 16.25C15.76 16.25 10.21 16.91 4.75 18.23Z" fill="white"/>
<path d="M4.75 18.23L3.76489 18.4019L3.94824 19.4526L4.98499 19.202L4.75 18.23ZM2.41 4.81999L2.1254 3.86135L1.27183 4.11475L1.42489 4.99189L2.41 4.81999ZM34.45 2.03L34.3027 3.01909L34.3143 3.02082L34.326 3.02228L34.45 2.03ZM41.83 4.46L41.3045 5.3108L41.3137 5.31647L41.323 5.32193L41.83 4.46ZM46.51 9.77L45.602 10.1891L45.6064 10.1986L45.611 10.208L46.51 9.77ZM47.14 26.78L48.083 27.1128L48.0859 27.1043L47.14 26.78ZM35.17 37.13L34.7683 36.2142L34.7683 36.2142L35.17 37.13ZM21.94 42.08L21.6238 41.1313L20.94 41.3592V42.08H21.94ZM21.94 44.6H20.94V45.6H21.94V44.6ZM47.32 44.6H48.32V43.6H47.32V44.6ZM47.32 59V60H48.32V59H47.32ZM1.15 59H0.15V60H1.15V59ZM1.42 43.16L0.433606 42.9956L0.430692 43.0131L0.4284 43.0307L1.42 43.16ZM2.59 39.11L1.68714 38.6801L1.67864 38.6979L1.67086 38.7161L2.59 39.11ZM4.93 35.51L4.16805 34.8623L4.16509 34.8659L4.93 35.51ZM8.71 31.82L9.35322 32.5857L9.36079 32.5793L8.71 31.82ZM11.59 29.75L11.089 28.8846L11.0787 28.8905L11.0686 28.8967L11.59 29.75ZM15.19 27.86L15.6199 28.7629L15.6286 28.7587L15.6372 28.7544L15.19 27.86ZM19.15 25.97L18.7513 25.0529L18.7437 25.0562L18.7362 25.0596L19.15 25.97ZM23.02 24.26L23.4304 25.1719L23.4304 25.1719L23.02 24.26ZM26.26 22.82L26.6608 23.7362L26.6843 23.7259L26.7072 23.7144L26.26 22.82ZM28.87 21.56L29.2891 22.468L29.87 22.1998V21.56H28.87ZM28.87 16.7H29.87V15.7832L28.9566 15.7038L28.87 16.7ZM24.91 16.43L24.8105 17.425L24.8364 17.4276L24.8624 17.4289L24.91 16.43ZM5.73511 18.0581L3.39511 4.6481L1.42489 4.99189L3.76489 18.4019L5.73511 18.0581ZM2.6946 5.77864C10.2901 3.52374 17.7242 2.4 25 2.4V0.399996C17.5158 0.399996 9.88992 1.55626 2.1254 3.86135L2.6946 5.77864ZM25 2.4C28.441 2.4 31.5407 2.60773 34.3027 3.01909L34.5973 1.04091C31.7193 0.612266 28.519 0.399996 25 0.399996V2.4ZM34.326 3.02228C37.093 3.36815 39.4096 4.14038 41.3045 5.3108L42.3555 3.6092C40.1705 2.25961 37.567 1.41185 34.574 1.03772L34.326 3.02228ZM41.323 5.32193C43.1716 6.40937 44.5995 8.01683 45.602 10.1891L47.418 9.35094C46.2605 6.84317 44.5684 4.91062 42.337 3.59806L41.323 5.32193ZM45.611 10.208C46.6589 12.359 47.22 15.3398 47.22 19.22H49.22C49.22 15.1802 48.6411 11.861 47.409 9.33203L45.611 10.208ZM47.22 19.22C47.22 22.0833 46.8688 24.4877 46.1941 26.4557L48.0859 27.1043C48.8512 24.8723 49.22 22.2367 49.22 19.22H47.22ZM46.197 26.4472C45.5437 28.2983 44.3355 30.0202 42.5215 31.6074L43.8385 33.1126C45.8645 31.3398 47.2963 29.3417 48.083 27.1128L46.197 26.4472ZM42.5215 31.6074C40.7049 33.1969 38.1341 34.738 34.7683 36.2142L35.5717 38.0458C39.0459 36.522 41.8151 34.8831 43.8385 33.1126L42.5215 31.6074ZM34.7683 36.2142C31.3867 37.6974 27.0081 39.3365 21.6238 41.1313L22.2562 43.0287C27.6719 41.2235 32.1133 39.5626 35.5717 38.0458L34.7683 36.2142ZM20.94 42.08V44.6H22.94V42.08H20.94ZM21.94 45.6H47.32V43.6H21.94V45.6ZM46.32 44.6V59H48.32V44.6H46.32ZM47.32 58H1.15V60H47.32V58ZM2.15 59V47.75H0.15V59H2.15ZM2.15 47.75C2.15 46.1047 2.2382 44.6188 2.4116 43.2893L0.4284 43.0307C0.241802 44.4612 0.15 46.0353 0.15 47.75H2.15ZM2.40639 43.3244C2.63409 41.9582 3.00264 40.6858 3.50915 39.5039L1.67086 38.7161C1.09737 40.0542 0.68591 41.4818 0.433606 42.9956L2.40639 43.3244ZM3.49286 39.5399C4.0538 38.362 4.78613 37.2333 5.69491 36.1541L4.16509 34.8659C3.15387 36.0667 2.3262 37.338 1.68714 38.6801L3.49286 39.5399ZM5.69194 36.1576C6.66825 35.0091 7.88614 33.818 9.35319 32.5857L8.06681 31.0543C6.53386 32.342 5.23176 33.6109 4.16806 34.8624L5.69194 36.1576ZM9.36079 32.5793C10.155 31.8985 11.0706 31.2393 12.1115 30.6033L11.0686 28.8967C9.94935 29.5807 8.94503 30.3015 8.05921 31.0607L9.36079 32.5793ZM12.091 30.6154C13.2065 29.9696 14.3827 29.352 15.6199 28.7629L14.7601 26.9571C13.4773 27.568 12.2535 28.2104 11.089 28.8846L12.091 30.6154ZM15.6372 28.7544C16.9464 28.0998 18.2552 27.4752 19.5638 26.8804L18.7362 25.0596C17.4048 25.6648 16.0736 26.3002 14.7428 26.9656L15.6372 28.7544ZM19.5487 26.8871C20.9321 26.2856 22.226 25.7139 23.4304 25.1719L22.6096 23.3481C21.414 23.8861 20.1279 24.4544 18.7513 25.0529L19.5487 26.8871ZM23.4304 25.1719C24.628 24.633 25.7047 24.1545 26.6608 23.7362L25.8592 21.9038C24.8953 22.3255 23.8121 22.807 22.6096 23.3481L23.4304 25.1719ZM26.7072 23.7144C27.6601 23.238 28.5205 22.8227 29.2891 22.468L28.4509 20.652C27.6595 21.0173 26.7799 21.442 25.8128 21.9256L26.7072 23.7144ZM29.87 21.56V16.7H27.87V21.56H29.87ZM28.9566 15.7038C27.5649 15.5827 26.2318 15.4918 24.9576 15.4311L24.8624 17.4289C26.1082 17.4882 27.4151 17.5773 28.7834 17.6962L28.9566 15.7038ZM25.0095 15.435C23.7783 15.3118 22.5751 15.25 21.4 15.25V17.25C22.5049 17.25 23.6417 17.3082 24.8105 17.425L25.0095 15.435ZM21.4 15.25C15.6812 15.25 10.0523 15.9193 4.51501 17.258L4.98499 19.202C10.3677 17.9007 15.8388 17.25 21.4 17.25V15.25Z" fill="black"/>
</svg>
