<svg width="49" height="62" viewBox="0 0 49 62" fill="none" xmlns="http://www.w3.org/2000/svg">
<path d="M12.93 24.35L28.41 22.55V16.7C27.51 16.58 26.34 16.49 24.9 16.43C23.46 16.31 21.72 16.25 19.68 16.25C15.72 16.25 10.71 16.88 4.65 18.14L2.31 4.81999C9.69 2.54 16.77 1.4 23.55 1.4C26.31 1.4 29.04 1.49 31.74 1.67C34.5 1.85 36.96 2.42 39.12 3.38C41.28 4.28 43.02 5.69 44.34 7.61C45.66 9.53 46.32 12.23 46.32 15.71C46.32 21.71 43.83 26.03 38.85 28.67V29.12C44.79 31.52 47.76 35.99 47.76 42.53C47.76 46.73 46.98 50.03 45.42 52.43C43.92 54.77 41.91 56.54 39.39 57.74C36.87 58.94 34.02 59.66 30.84 59.9C27.66 60.2 24.45 60.35 21.21 60.35C14.67 60.35 8.01 59.57 1.23 58.01L3.75 43.16C9.57 44.54 14.4 45.23 18.24 45.23C22.26 45.23 25.65 45.05 28.41 44.69V38.93L12.93 37.4V24.35Z" fill="white"/>
<path d="M12.93 24.35L12.8145 23.3567L11.93 23.4595V24.35H12.93ZM28.41 22.55L28.5255 23.5433L29.41 23.4405V22.55H28.41ZM28.41 16.7H29.41V15.8245L28.5422 15.7088L28.41 16.7ZM24.9 16.43L24.817 17.4265L24.8376 17.4283L24.8584 17.4291L24.9 16.43ZM4.65 18.14L3.66508 18.313L3.84358 19.3291L4.85357 19.1191L4.65 18.14ZM2.31 4.81999L2.01482 3.86455L1.17255 4.12477L1.32508 4.99302L2.31 4.81999ZM31.74 1.67L31.6735 2.66778L31.6749 2.66788L31.74 1.67ZM39.12 3.38L38.7139 4.29381L38.7246 4.29857L38.7354 4.30307L39.12 3.38ZM38.85 28.67L38.3816 27.7865L37.85 28.0683V28.67H38.85ZM38.85 29.12H37.85V29.7945L38.4754 30.0472L38.85 29.12ZM45.42 52.43L44.5815 51.885L44.5781 51.8903L45.42 52.43ZM39.39 57.74L39.8199 58.6429L39.8199 58.6429L39.39 57.74ZM30.84 59.9L30.7647 58.9028L30.7554 58.9035L30.7461 58.9044L30.84 59.9ZM1.23 58.01L0.244095 57.8427L0.0862317 58.773L1.00577 58.9845L1.23 58.01ZM3.75 43.16L3.98072 42.187L2.94259 41.9408L2.7641 42.9927L3.75 43.16ZM28.41 44.69L28.5393 45.6816L29.41 45.568V44.69H28.41ZM28.41 38.93H29.41V38.024L28.5084 37.9348L28.41 38.93ZM12.93 37.4H11.93V38.306L12.8316 38.3952L12.93 37.4ZM13.0455 25.3433L28.5255 23.5433L28.2945 21.5567L12.8145 23.3567L13.0455 25.3433ZM29.41 22.55V16.7H27.41V22.55H29.41ZM28.5422 15.7088C27.6 15.5831 26.3966 15.4915 24.9416 15.4309L24.8584 17.4291C26.2834 17.4885 27.42 17.5768 28.2778 17.6912L28.5422 15.7088ZM24.983 15.4335C23.5068 15.3104 21.7374 15.25 19.68 15.25V17.25C21.7026 17.25 23.4132 17.3096 24.817 17.4265L24.983 15.4335ZM19.68 15.25C15.6247 15.25 10.5405 15.8939 4.44643 17.1609L4.85357 19.1191C10.8795 17.8661 15.8153 17.25 19.68 17.25V15.25ZM5.63492 17.967L3.29492 4.64697L1.32508 4.99302L3.66508 18.313L5.63492 17.967ZM2.60518 5.77544C9.90264 3.52094 16.8829 2.4 23.55 2.4V0.399996C16.6571 0.399996 9.47736 1.55905 2.01482 3.86455L2.60518 5.77544ZM23.55 2.4C26.2883 2.4 28.9961 2.48929 31.6735 2.66778L31.8065 0.672213C29.0839 0.490706 26.3318 0.399996 23.55 0.399996V2.4ZM31.6749 2.66788C34.3368 2.84148 36.6783 3.38913 38.7139 4.29381L39.5261 2.46619C37.2417 1.45087 34.6632 0.858518 31.8051 0.672118L31.6749 2.66788ZM38.7354 4.30307C40.7184 5.12935 42.3055 6.41593 43.516 8.17653L45.164 7.04347C43.7345 4.96406 41.8416 3.43064 39.5046 2.45692L38.7354 4.30307ZM43.516 8.17653C44.6776 9.86621 45.32 12.3381 45.32 15.71H47.32C47.32 12.1218 46.6424 9.19378 45.164 7.04347L43.516 8.17653ZM45.32 15.71C45.32 18.5703 44.7274 20.9706 43.5861 22.9506C42.4469 24.9272 40.7277 26.5428 38.3816 27.7865L39.3184 29.5535C41.9523 28.1572 43.9681 26.2928 45.3189 23.9494C46.6677 21.6093 47.32 18.8497 47.32 15.71H45.32ZM37.85 28.67V29.12H39.85V28.67H37.85ZM38.4754 30.0472C41.2954 31.1866 43.3464 32.7892 44.6996 34.8259C46.0538 36.8641 46.76 39.4134 46.76 42.53H48.76C48.76 39.1066 47.9812 36.1509 46.3654 33.7191C44.7486 31.2858 42.3446 29.4534 39.2246 28.1928L38.4754 30.0472ZM46.76 42.53C46.76 46.6219 45.9977 49.7064 44.5816 51.885L46.2584 52.975C47.9623 50.3536 48.76 46.8381 48.76 42.53H46.76ZM44.5781 51.8903C43.1793 54.0725 41.3123 55.717 38.9601 56.8371L39.8199 58.6429C42.5077 57.363 44.6607 55.4675 46.2619 52.9697L44.5781 51.8903ZM38.9601 56.8371C36.5662 57.9771 33.8391 58.6708 30.7647 58.9028L30.9153 60.8972C34.2009 60.6492 37.1738 59.9029 39.8199 58.6429L38.9601 56.8371ZM30.7461 58.9044C27.5977 59.2014 24.4191 59.35 21.21 59.35V61.35C24.4809 61.35 27.7223 61.1986 30.9339 60.8956L30.7461 58.9044ZM21.21 59.35C14.7501 59.35 8.16535 58.5796 1.45423 57.0355L1.00577 58.9845C7.85465 60.5604 14.5899 61.35 21.21 61.35V59.35ZM2.21591 58.1773L4.73591 43.3273L2.7641 42.9927L0.244095 57.8427L2.21591 58.1773ZM3.51928 44.133C9.37796 45.5222 14.2918 46.23 18.24 46.23V44.23C14.5082 44.23 9.76204 43.5578 3.98072 42.187L3.51928 44.133ZM18.24 46.23C22.286 46.23 25.7222 46.049 28.5393 45.6816L28.2807 43.6984C25.5778 44.051 22.234 44.23 18.24 44.23V46.23ZM29.41 44.69V38.93H27.41V44.69H29.41ZM28.5084 37.9348L13.0284 36.4048L12.8316 38.3952L28.3116 39.9252L28.5084 37.9348ZM13.93 37.4V24.35H11.93V37.4H13.93Z" fill="black"/>
</svg>
