<svg width="55" height="59" viewBox="0 0 55 59" fill="none" xmlns="http://www.w3.org/2000/svg">
<path d="M47.16 58V49H53.01V33.52H47.16V1.75H15.3L1.44 37.75V49H29.16V58H47.16ZM29.16 15.25V33.52H20.25L28.26 15.25H29.16Z" fill="white"/>
<path d="M47.16 58V59H48.16V58H47.16ZM47.16 49V48H46.16V49H47.16ZM53.01 49V50H54.01V49H53.01ZM53.01 33.52H54.01V32.52H53.01V33.52ZM47.16 33.52H46.16V34.52H47.16V33.52ZM47.16 1.75H48.16V0.75H47.16V1.75ZM15.3 1.75V0.75H14.6134L14.3668 1.39071L15.3 1.75ZM1.44 37.75L0.506775 37.3907L0.44 37.5641V37.75H1.44ZM1.44 49H0.44V50H1.44V49ZM29.16 49H30.16V48H29.16V49ZM29.16 58H28.16V59H29.16V58ZM29.16 15.25H30.16V14.25H29.16V15.25ZM29.16 33.52V34.52H30.16V33.52H29.16ZM20.25 33.52L19.3342 33.1185L18.7197 34.52H20.25V33.52ZM28.26 15.25V14.25H27.6065L27.3442 14.8485L28.26 15.25ZM48.16 58V49H46.16V58H48.16ZM47.16 50H53.01V48H47.16V50ZM54.01 49V33.52H52.01V49H54.01ZM53.01 32.52H47.16V34.52H53.01V32.52ZM48.16 33.52V1.75H46.16V33.52H48.16ZM47.16 0.75H15.3V2.75H47.16V0.75ZM14.3668 1.39071L0.506775 37.3907L2.37323 38.1093L16.2332 2.10929L14.3668 1.39071ZM0.44 37.75V49H2.44V37.75H0.44ZM1.44 50H29.16V48H1.44V50ZM28.16 49V58H30.16V49H28.16ZM29.16 59H47.16V57H29.16V59ZM28.16 15.25V33.52H30.16V15.25H28.16ZM29.16 32.52H20.25V34.52H29.16V32.52ZM21.1658 33.9215L29.1758 15.6515L27.3442 14.8485L19.3342 33.1185L21.1658 33.9215ZM28.26 16.25H29.16V14.25H28.26V16.25Z" fill="black"/>
</svg>
