<svg width="51" height="61" viewBox="0 0 51 61" fill="none" xmlns="http://www.w3.org/2000/svg">
<path d="M1.78 57.01L4.3 42.16C10.12 43.54 15.13 44.23 19.33 44.23C23.59 44.23 27.1 44.05 29.86 43.69V39.19L23.11 38.47C19.39 38.11 16.3 37.63 13.84 37.03C11.38 36.43 9.4 35.65 7.9 34.69C6.46 33.67 5.44 32.41 4.84 30.91C4.24 29.35 3.94 27.43 3.94 25.15C3.94 24.85 4 22.75 4.12 18.85C4.3 14.95 4.54 9.25 4.84 1.75H45.79L44.44 17.23L23.11 15.97V20.56L28.42 21.19C32.38 21.67 35.68 22.39 38.32 23.35C40.96 24.31 43.09 25.54 44.71 27.04C46.33 28.48 47.47 30.22 48.13 32.26C48.85 34.24 49.21 36.55 49.21 39.19C49.21 42.97 48.7 46.15 47.68 48.73C46.66 51.31 45.46 53.29 44.08 54.67C42.88 55.75 41.44 56.62 39.76 57.28C38.08 57.88 36.28 58.33 34.36 58.63C32.5 58.99 30.61 59.2 28.69 59.26C26.77 59.32 25.03 59.35 23.47 59.35C15.79 59.35 8.56 58.57 1.78 57.01Z" fill="white"/>
<path d="M1.78 57.01L0.794095 56.8427L0.636232 57.773L1.55577 57.9845L1.78 57.01ZM4.3 42.16L4.53072 41.187L3.49259 40.9408L3.31409 41.9927L4.3 42.16ZM29.86 43.69L29.9893 44.6816L30.86 44.568V43.69H29.86ZM29.86 39.19H30.86V38.291L29.9661 38.1956L29.86 39.19ZM23.11 38.47L23.2161 37.4756L23.2063 37.4746L23.11 38.47ZM13.84 37.03L14.077 36.0585L14.077 36.0585L13.84 37.03ZM7.9 34.69L7.32198 35.506L7.34116 35.5196L7.36095 35.5323L7.9 34.69ZM4.84 30.91L3.90657 31.269L3.91152 31.2814L4.84 30.91ZM4.12 18.85L3.12106 18.8039L3.12071 18.8116L3.12047 18.8192L4.12 18.85ZM4.84 1.75V0.75H3.8792L3.8408 1.71003L4.84 1.75ZM45.79 1.75L46.7862 1.83688L46.881 0.75H45.79V1.75ZM44.44 17.23L44.381 18.2283L45.3517 18.2856L45.4362 17.3169L44.44 17.23ZM23.11 15.97L23.169 14.9717L22.11 14.9092V15.97H23.11ZM23.11 20.56H22.11V21.4484L22.9922 21.553L23.11 20.56ZM28.42 21.19L28.5403 20.1973L28.5378 20.197L28.42 21.19ZM44.71 27.04L44.0306 27.7738L44.038 27.7807L44.0456 27.7874L44.71 27.04ZM48.13 32.26L47.1786 32.5678L47.1841 32.5849L47.1902 32.6017L48.13 32.26ZM47.68 48.73L48.61 49.0977L48.61 49.0977L47.68 48.73ZM44.08 54.67L44.749 55.4133L44.7685 55.3957L44.7871 55.3771L44.08 54.67ZM39.76 57.28L40.0963 58.2217L40.1111 58.2165L40.1257 58.2108L39.76 57.28ZM34.36 58.63L34.2056 57.642L34.1877 57.6448L34.17 57.6482L34.36 58.63ZM2.76591 57.1773L5.28591 42.3273L3.31409 41.9927L0.794095 56.8427L2.76591 57.1773ZM4.06928 43.133C9.93582 44.5241 15.0273 45.23 19.33 45.23V43.23C15.2328 43.23 10.3042 42.5559 4.53072 41.187L4.06928 43.133ZM19.33 45.23C23.6132 45.23 27.1703 45.0493 29.9893 44.6816L29.7307 42.6984C27.0297 43.0507 23.5668 43.23 19.33 43.23V45.23ZM30.86 43.69V39.19H28.86V43.69H30.86ZM29.9661 38.1956L23.2161 37.4756L23.0039 39.4644L29.7539 40.1844L29.9661 38.1956ZM23.2063 37.4746C19.5137 37.1173 16.4746 36.6433 14.077 36.0585L13.603 38.0015C16.1254 38.6167 19.2663 39.1027 23.0137 39.4653L23.2063 37.4746ZM14.077 36.0585C11.6827 35.4745 9.81603 34.729 8.43905 33.8477L7.36095 35.5323C8.98397 36.571 11.0773 37.3855 13.603 38.0015L14.077 36.0585ZM8.47802 33.874C7.18014 32.9546 6.29035 31.8433 5.76848 30.5386L3.91152 31.2814C4.58965 32.9767 5.73987 34.3854 7.32198 35.506L8.47802 33.874ZM5.77335 30.551C5.23025 29.139 4.94 27.349 4.94 25.15H2.94C2.94 27.511 3.24975 29.561 3.90665 31.269L5.77335 30.551ZM4.94 25.15C4.94 24.8703 4.99907 22.7956 5.11953 18.8808L3.12047 18.8192C3.00093 22.7044 2.94 24.8297 2.94 25.15H4.94ZM5.11894 18.8961C5.29908 14.993 5.53918 9.29052 5.8392 1.78997L3.8408 1.71003C3.54082 9.20948 3.30092 14.907 3.12106 18.8039L5.11894 18.8961ZM4.84 2.75H45.79V0.75H4.84V2.75ZM44.7938 1.66312L43.4438 17.1431L45.4362 17.3169L46.7862 1.83688L44.7938 1.66312ZM44.499 16.2317L23.169 14.9717L23.051 16.9683L44.381 18.2283L44.499 16.2317ZM22.11 15.97V20.56H24.11V15.97H22.11ZM22.9922 21.553L28.3022 22.183L28.5378 20.197L23.2278 19.567L22.9922 21.553ZM28.2997 22.1827C32.2129 22.6571 35.4327 23.3641 37.9783 24.2898L38.6617 22.4102C35.9273 21.4159 32.5471 20.6829 28.5403 20.1973L28.2997 22.1827ZM37.9783 24.2898C40.5259 25.2162 42.531 26.3852 44.0306 27.7738L45.3894 26.3062C43.649 24.6948 41.3941 23.4038 38.6617 22.4102L37.9783 24.2898ZM44.0456 27.7874C45.534 29.1104 46.574 30.6992 47.1786 32.5678L49.0814 31.9522C48.366 29.7408 47.126 27.8496 45.3744 26.2926L44.0456 27.7874ZM47.1902 32.6017C47.8617 34.4484 48.21 36.6383 48.21 39.19H50.21C50.21 36.4617 49.8383 34.0315 49.0698 31.9183L47.1902 32.6017ZM48.21 39.19C48.21 42.8868 47.7103 45.9334 46.75 48.3623L48.61 49.0977C49.6897 46.3666 50.21 43.0532 50.21 39.19H48.21ZM46.75 48.3623C45.7607 50.8648 44.6245 52.7113 43.3729 53.9629L44.7871 55.3771C46.2955 53.8687 47.5593 51.7552 48.61 49.0977L46.75 48.3623ZM43.411 53.9267C42.31 54.9177 40.9759 55.7279 39.3943 56.3492L40.1257 58.2108C41.9041 57.5121 43.45 56.5823 44.749 55.4133L43.411 53.9267ZM39.4237 56.3383C37.8077 56.9154 36.0691 57.3508 34.2056 57.642L34.5144 59.618C36.4909 59.3092 38.3523 58.8446 40.0963 58.2217L39.4237 56.3383ZM34.17 57.6482C32.3631 57.9979 30.5262 58.2021 28.6588 58.2605L28.7212 60.2595C30.6938 60.1979 32.6369 59.9821 34.55 59.6118L34.17 57.6482ZM28.6588 58.2605C26.7469 58.3202 25.0175 58.35 23.47 58.35V60.35C25.0425 60.35 26.7931 60.3198 28.7212 60.2595L28.6588 58.2605ZM23.47 58.35C15.8578 58.35 8.70353 57.5769 2.00423 56.0355L1.55577 57.9845C8.41647 59.5631 15.7222 60.35 23.47 60.35V58.35Z" fill="black"/>
</svg>
