<svg width="50" height="62" viewBox="0 0 50 62" fill="none" xmlns="http://www.w3.org/2000/svg">
<path d="M48.85 41C48.85 45.02 48.25 48.29 47.05 50.81C45.91 53.27 44.29 55.22 42.19 56.66C40.09 58.1 37.57 59.06 34.63 59.54C31.69 60.08 28.48 60.35 25 60.35C20.5 60.35 16.72 59.78 13.66 58.64C10.6 57.5 8.14 55.73 6.28 53.33C4.42 50.93 3.1 47.87 2.32 44.15C1.54 40.43 1.15 36.02 1.15 30.92C1.15 25.7 1.6 21.23 2.5 17.51C3.4 13.79 4.93 10.73 7.09 8.33C9.25 5.93 12.13 4.19 15.73 3.11C19.39 1.97 23.95 1.4 29.41 1.4C30.55 1.4 31.93 1.49 33.55 1.67C35.17 1.79 36.79 1.97 38.41 2.21C40.09 2.39 41.68 2.63 43.18 2.93C44.68 3.17 45.88 3.44 46.78 3.74L44.08 17.51C41.62 17.09 39.25 16.79 36.97 16.61C34.69 16.37 32.44 16.25 30.22 16.25C25.84 16.25 22.6 16.52 20.5 17.06V21.65H25C28.48 21.65 31.69 21.92 34.63 22.46C37.57 22.94 40.09 23.9 42.19 25.34C44.29 26.78 45.91 28.76 47.05 31.28C48.25 33.74 48.85 36.98 48.85 41ZM29.5 42.98V35.87H25.81C23.83 35.87 22.45 36.11 21.67 36.59C20.89 37.01 20.5 38.03 20.5 39.65V46.76H24.19C26.17 46.76 27.55 46.55 28.33 46.13C29.11 45.65 29.5 44.6 29.5 42.98Z" fill="white"/>
<path d="M47.05 50.81L46.1471 50.38L46.1427 50.3895L47.05 50.81ZM42.19 56.66L41.6245 55.8353L42.19 56.66ZM34.63 59.54L34.4689 58.5531L34.4591 58.5547L34.4493 58.5565L34.63 59.54ZM13.66 58.64L14.0091 57.7029L14.0091 57.7029L13.66 58.64ZM6.28 53.33L7.07042 52.7174L7.07042 52.7174L6.28 53.33ZM2.32 44.15L1.34128 44.3552L1.34128 44.3552L2.32 44.15ZM2.5 17.51L1.52804 17.2748L1.52804 17.2748L2.5 17.51ZM7.09 8.33L6.34671 7.66103L6.34671 7.66103L7.09 8.33ZM15.73 3.11L16.0174 4.06787L16.0274 4.06475L15.73 3.11ZM33.55 1.67L33.4396 2.66388L33.4578 2.66591L33.4761 2.66727L33.55 1.67ZM38.41 2.21L38.2635 3.1992L38.2834 3.20216L38.3035 3.20431L38.41 2.21ZM43.18 2.93L42.9839 3.91058L43.0029 3.91438L43.022 3.91744L43.18 2.93ZM46.78 3.74L47.7613 3.93241L47.9305 3.06941L47.0962 2.79131L46.78 3.74ZM44.08 17.51L43.9117 18.4957L44.8736 18.66L45.0613 17.7024L44.08 17.51ZM36.97 16.61L36.8653 17.6045L36.8783 17.6059L36.8913 17.6069L36.97 16.61ZM20.5 17.06L20.251 16.0915L19.5 16.2846V17.06H20.5ZM20.5 21.65H19.5V22.65H20.5V21.65ZM34.63 22.46L34.4493 23.4435L34.4591 23.4453L34.4689 23.4469L34.63 22.46ZM42.19 25.34L41.6245 26.1647L41.6245 26.1647L42.19 25.34ZM47.05 31.28L46.1389 31.6922L46.1449 31.7054L46.1512 31.7184L47.05 31.28ZM29.5 35.87H30.5V34.87H29.5V35.87ZM21.67 36.59L22.1441 37.4705L22.1695 37.4568L22.1941 37.4417L21.67 36.59ZM20.5 46.76H19.5V47.76H20.5V46.76ZM28.33 46.13L28.8041 47.0105L28.8295 46.9968L28.8541 46.9817L28.33 46.13ZM47.85 41C47.85 44.9319 47.2614 48.0401 46.1471 50.3801L47.9529 51.2399C49.2386 48.5399 49.85 45.1081 49.85 41H47.85ZM46.1427 50.3895C45.0731 52.6975 43.5666 54.5035 41.6245 55.8353L42.7555 57.4847C45.0134 55.9365 46.7469 53.8425 47.9573 51.2305L46.1427 50.3895ZM41.6245 55.8353C39.6646 57.1792 37.2883 58.0928 34.4689 58.5531L34.7911 60.5269C37.8517 60.0272 40.5154 59.0208 42.7555 57.4847L41.6245 55.8353ZM34.4493 58.5565C31.5777 59.0839 28.429 59.35 25 59.35V61.35C28.531 61.35 31.8023 61.0761 34.8107 60.5235L34.4493 58.5565ZM25 59.35C20.5773 59.35 16.9239 58.7888 14.0091 57.7029L13.3109 59.5771C16.5161 60.7712 20.4227 61.35 25 61.35V59.35ZM14.0091 57.7029C11.1099 56.6228 8.80775 54.9592 7.07042 52.7174L5.48959 53.9426C7.47225 56.5008 10.0901 58.3772 13.3109 59.5771L14.0091 57.7029ZM7.07042 52.7174C5.3236 50.4635 4.05525 47.5529 3.29872 43.9448L1.34128 44.3552C2.14475 48.1871 3.5164 51.3965 5.48959 53.9426L7.07042 52.7174ZM3.29872 43.9448C2.53673 40.3107 2.15 35.9728 2.15 30.92H0.15C0.15 36.0672 0.543273 40.5493 1.34128 44.3552L3.29872 43.9448ZM2.15 30.92C2.15 25.7527 2.59594 21.366 3.47196 17.7451L1.52804 17.2748C0.604064 21.094 0.15 25.6473 0.15 30.92H2.15ZM3.47196 17.7451C4.34015 14.1566 5.80323 11.2546 7.83329 8.99896L6.34671 7.66103C4.05677 10.2054 2.45985 13.4234 1.52804 17.2748L3.47196 17.7451ZM7.83329 8.99896C9.85173 6.75625 12.5637 5.10392 16.0173 4.06782L15.4427 2.15217C11.6963 3.27607 8.64827 5.10374 6.34671 7.66103L7.83329 8.99896ZM16.0274 4.06475C19.5598 2.96448 24.0118 2.4 29.41 2.4V0.399996C23.8882 0.399996 19.2202 0.975507 15.4326 2.15524L16.0274 4.06475ZM29.41 2.4C30.5012 2.4 31.8421 2.48638 33.4396 2.66388L33.6604 0.676114C32.0179 0.493611 30.5988 0.399996 29.41 0.399996V2.4ZM33.4761 2.66727C35.0716 2.78545 36.6674 2.96274 38.2635 3.1992L38.5566 1.22079C36.9126 0.977248 35.2684 0.794544 33.6239 0.67273L33.4761 2.66727ZM38.3035 3.20431C39.9565 3.38141 41.5164 3.61708 42.9839 3.91058L43.3761 1.94942C41.8436 1.64291 40.2235 1.39858 38.5165 1.21569L38.3035 3.20431ZM43.022 3.91744C44.4961 4.1533 45.6366 4.41295 46.4638 4.68868L47.0962 2.79131C46.1234 2.46705 44.8639 2.1867 43.338 1.94256L43.022 3.91744ZM45.7987 3.54758L43.0987 17.3176L45.0613 17.7024L47.7613 3.93241L45.7987 3.54758ZM44.2483 16.5243C41.7613 16.0996 39.3613 15.7957 37.0487 15.6131L36.8913 17.6069C39.1387 17.7843 41.4787 18.0803 43.9117 18.4957L44.2483 16.5243ZM37.0747 15.6155C34.761 15.372 32.4761 15.25 30.22 15.25V17.25C32.4039 17.25 34.619 17.368 36.8653 17.6045L37.0747 15.6155ZM30.22 15.25C25.8231 15.25 22.4785 15.5187 20.251 16.0915L20.749 18.0285C22.7215 17.5213 25.857 17.25 30.22 17.25V15.25ZM19.5 17.06V21.65H21.5V17.06H19.5ZM20.5 22.65H25V20.65H20.5V22.65ZM25 22.65C28.429 22.65 31.5777 22.9161 34.4493 23.4435L34.8107 21.4765C31.8023 20.9239 28.531 20.65 25 20.65V22.65ZM34.4689 23.4469C37.2883 23.9072 39.6646 24.8208 41.6245 26.1647L42.7555 24.5153C40.5154 22.9792 37.8517 21.9728 34.7911 21.4731L34.4689 23.4469ZM41.6245 26.1647C43.5608 27.4925 45.0675 29.3238 46.1389 31.6922L47.9611 30.8678C46.7525 28.1962 45.0192 26.0675 42.7555 24.5153L41.6245 26.1647ZM46.1512 31.7184C47.2608 33.9931 47.85 37.0663 47.85 41H49.85C49.85 36.8937 49.2392 33.4869 47.9488 30.8416L46.1512 31.7184ZM30.5 42.98V35.87H28.5V42.98H30.5ZM29.5 34.87H25.81V36.87H29.5V34.87ZM25.81 34.87C23.8146 34.87 22.1832 35.1 21.1459 35.7383L22.1941 37.4417C22.7168 37.12 23.8454 36.87 25.81 36.87V34.87ZM21.1959 35.7095C19.8906 36.4124 19.5 37.9687 19.5 39.65H21.5C21.5 38.0913 21.8894 37.6076 22.1441 37.4705L21.1959 35.7095ZM19.5 39.65V46.76H21.5V39.65H19.5ZM20.5 47.76H24.19V45.76H20.5V47.76ZM24.19 47.76C26.1787 47.76 27.7845 47.5595 28.8041 47.0105L27.8559 45.2495C27.3155 45.5405 26.1613 45.76 24.19 45.76V47.76ZM28.8541 46.9817C30.1018 46.2139 30.5 44.6808 30.5 42.98H28.5C28.5 44.5192 28.1182 45.0861 27.8059 45.2783L28.8541 46.9817Z" fill="black"/>
</svg>
