<svg width="295" height="72" viewBox="0 0 295 72" fill="none" xmlns="http://www.w3.org/2000/svg">
<path d="M294.5 36C294.5 40.6787 290.601 45.2854 283.159 49.5798C275.754 53.8528 265.005 57.7178 251.68 60.9701C225.036 67.4729 188.203 71.5 147.5 71.5C106.797 71.5 69.9635 67.4729 43.3203 60.9701C29.9948 57.7178 19.2462 53.8528 11.8412 49.5798C4.39915 45.2854 0.5 40.6787 0.5 36C0.5 31.3213 4.39915 26.7146 11.8412 22.4202C19.2462 18.1472 29.9948 14.2822 43.3203 11.0299C69.9635 4.52714 106.797 0.5 147.5 0.5C188.203 0.5 225.036 4.52714 251.68 11.0299C265.005 14.2822 275.754 18.1472 283.159 22.4202C290.601 26.7146 294.5 31.3213 294.5 36Z" stroke="white"/>
</svg>
