<svg width="329" height="402" viewBox="0 0 329 402" fill="none" xmlns="http://www.w3.org/2000/svg">
<g clip-path="url(#clip0)">
<path d="M78.51 192.73C68.75 193.54 0 200.95 0 200.95C0 200.95 68.75 208.36 78.51 209.17C88.27 209.98 118.37 206.56 124.07 200.95C118.37 195.34 88.27 191.92 78.51 192.73Z" fill="white"/>
<path d="M250.17 192.73C259.93 193.54 328.68 200.95 328.68 200.95C328.68 200.95 259.93 208.36 250.17 209.17C240.41 209.98 210.31 206.56 204.61 200.95C210.31 195.34 240.41 191.92 250.17 192.73Z" fill="white"/>
<path d="M164.73 218.73C174.588 218.73 182.58 210.738 182.58 200.88C182.58 191.022 174.588 183.03 164.73 183.03C154.872 183.03 146.88 191.022 146.88 200.88C146.88 210.738 154.872 218.73 164.73 218.73Z" fill="white"/>
<path d="M173.33 102.51C171.3 79.32 169.54 45.56 164.73 0C159.91 45.56 158.16 79.32 156.12 102.51C154.08 125.7 164.73 162.71 164.73 162.71C164.73 162.71 175.37 125.69 173.33 102.51Z" fill="white"/>
<path d="M173.33 299.25C171.3 322.44 169.54 356.2 164.72 401.76C159.9 356.2 158.15 322.44 156.11 299.25C154.07 276.06 164.72 239.05 164.72 239.05C164.72 239.05 175.37 276.06 173.33 299.25Z" fill="white"/>
<path d="M218.54 158.52C227.46 145.86 243.62 125.49 249.27 115.62C239.39 121.27 219.02 137.43 206.37 146.35C193.71 155.27 191.17 173.72 191.17 173.72C191.17 173.72 209.62 171.18 218.54 158.52Z" fill="white"/>
<path d="M123.04 146.26C110.38 137.34 90.0099 121.18 80.1399 115.53C85.7899 125.41 101.95 145.78 110.87 158.43C119.79 171.08 138.24 173.63 138.24 173.63C138.24 173.63 135.7 155.17 123.04 146.26Z" fill="white"/>
<path d="M110.78 241.75C101.86 254.41 85.7 274.78 80.05 284.65C89.93 279 110.3 262.84 122.95 253.92C135.61 245 138.15 226.55 138.15 226.55C138.15 226.55 119.7 229.1 110.78 241.75Z" fill="white"/>
<path d="M206.28 254.01C218.94 262.93 239.31 279.09 249.18 284.74C243.53 274.86 227.37 254.49 218.45 241.84C209.53 229.18 191.08 226.64 191.08 226.64C191.08 226.64 193.62 245.1 206.28 254.01Z" fill="white"/>
</g>
<defs>
<clipPath id="clip0">
<rect width="328.68" height="401.75" fill="white"/>
</clipPath>
</defs>
</svg>
